# xmcd
#
# Track frame offsets:
#	182
#	14767
#	33435
#	51832
#	67035
#	86045
#	109087
#	127477
#	144640
#	159707
#	178830
#
# Disc length: 2861 seconds
#
# Revision: 1
# Processed by: cddbd v1.5.1PL0 Copyright (c) Steve Scherf et al.
# Submitted via: CDex 1.50Beta5
#
DISCID=aa0b2b0b
DTITLE=El Torta - Colores Morenos
DYEAR=1994
DGENRE=World
TTITLE0=Colores Morenos
TTITLE1=Comp将。s Borb将ムreo
TTITLE2=Mi Barca Canastera
TTITLE3=Hijuela del Lirio
TTITLE4=Fandangos del Amor将ソo
TTITLE5=Mis Sue将ミos
TTITLE6=Bamberas del Pa将ミuelo
TTITLE7=En Mi Recuerdo
TTITLE8=Abrazame
TTITLE9=A Triana
TTITLE10=Sole将。 and Buler将ソa Al Golpe
EXTD=
EXTT0=
EXTT1=
EXTT2=
EXTT3=
EXTT4=
EXTT5=
EXTT6=
EXTT7=
EXTT8=
EXTT9=
EXTT10=
PLAYORDER=
